<svg height="1678" width="720" xmlns="http://www.w3.org/2000/svg">
<rect height="1678" fill="#555" width="720"></rect>
<text fill="#7f7" font-family="Courier New" font-size="12" xml:space="preserve">
<tspan x="10" y="26">10 megabytes installed</tspan>
<tspan x="10" y="42"></tspan>
<tspan x="10" y="58">node_modules</tspan>
<tspan x="10" y="74">└─┬ micro@7.3.2 </tspan>
<tspan x="10" y="90">  ├─┬ args@2.6.0 </tspan>
<tspan x="10" y="106">  │ ├── camelcase@4.1.0 </tspan>
<tspan x="10" y="122">  │ ├── minimist@1.2.0 </tspan>
<tspan x="10" y="138">  │ ├── pkginfo@0.4.0 </tspan>
<tspan x="10" y="154">  │ └─┬ string-similarity@1.1.0 </tspan>
<tspan x="10" y="170">  │   └── lodash@4.17.4 </tspan>
<tspan x="10" y="186">  ├─┬ async-to-gen@1.3.2 </tspan>
<tspan x="10" y="202">  │ ├── babylon@6.16.1 </tspan>
<tspan x="10" y="218">  │ └─┬ magic-string@0.19.0 </tspan>
<tspan x="10" y="234">  │   └── vlq@0.2.2 </tspan>
<tspan x="10" y="250">  ├── bluebird@3.5.0 </tspan>
<tspan x="10" y="266">  ├─┬ boxen@1.0.0 </tspan>
<tspan x="10" y="282">  │ ├─┬ ansi-align@1.1.0 </tspan>
<tspan x="10" y="298">  │ │ └─┬ string-width@1.0.2 </tspan>
<tspan x="10" y="314">  │ │   ├── code-point-at@1.1.0 </tspan>
<tspan x="10" y="330">  │ │   └─┬ is-fullwidth-code-point@1.0.0 </tspan>
<tspan x="10" y="346">  │ │     └── number-is-nan@1.0.1 </tspan>
<tspan x="10" y="362">  │ ├── cli-boxes@1.0.0 </tspan>
<tspan x="10" y="378">  │ ├─┬ string-width@2.0.0 </tspan>
<tspan x="10" y="394">  │ │ └── is-fullwidth-code-point@2.0.0 </tspan>
<tspan x="10" y="410">  │ ├─┬ term-size@0.1.1 </tspan>
<tspan x="10" y="426">  │ │ └─┬ execa@0.4.0 </tspan>
<tspan x="10" y="442">  │ │   ├── cross-spawn-async@2.2.5 </tspan>
<tspan x="10" y="458">  │ │   ├── npm-run-path@1.0.0 </tspan>
<tspan x="10" y="474">  │ │   ├── object-assign@4.1.1 </tspan>
<tspan x="10" y="490">  │ │   └── path-key@1.0.0 </tspan>
<tspan x="10" y="506">  │ └─┬ widest-line@1.0.0 </tspan>
<tspan x="10" y="522">  │   └── string-width@1.0.2 </tspan>
<tspan x="10" y="538">  ├─┬ chalk@1.1.3 </tspan>
<tspan x="10" y="554">  │ ├── ansi-styles@2.2.1 </tspan>
<tspan x="10" y="570">  │ ├── escape-string-regexp@1.0.5 </tspan>
<tspan x="10" y="586">  │ ├─┬ has-ansi@2.0.0 </tspan>
<tspan x="10" y="602">  │ │ └── ansi-regex@2.1.1 </tspan>
<tspan x="10" y="618">  │ ├── strip-ansi@3.0.1 </tspan>
<tspan x="10" y="634">  │ └── supports-color@2.0.0 </tspan>
<tspan x="10" y="650">  ├─┬ clipboardy@1.1.0 </tspan>
<tspan x="10" y="666">  │ └─┬ execa@0.6.3 </tspan>
<tspan x="10" y="682">  │   ├─┬ cross-spawn@5.1.0 </tspan>
<tspan x="10" y="698">  │   │ ├─┬ lru-cache@4.0.2 </tspan>
<tspan x="10" y="714">  │   │ │ ├── pseudomap@1.0.2 </tspan>
<tspan x="10" y="730">  │   │ │ └── yallist@2.1.2 </tspan>
<tspan x="10" y="746">  │   │ ├─┬ shebang-command@1.2.0 </tspan>
<tspan x="10" y="762">  │   │ │ └── shebang-regex@1.0.0 </tspan>
<tspan x="10" y="778">  │   │ └─┬ which@1.2.14 </tspan>
<tspan x="10" y="794">  │   │   └── isexe@2.0.0 </tspan>
<tspan x="10" y="810">  │   ├── get-stream@3.0.0 </tspan>
<tspan x="10" y="826">  │   ├── is-stream@1.1.0 </tspan>
<tspan x="10" y="842">  │   ├─┬ npm-run-path@2.0.2 </tspan>
<tspan x="10" y="858">  │   │ └── path-key@2.0.1 </tspan>
<tspan x="10" y="874">  │   ├── p-finally@1.0.0 </tspan>
<tspan x="10" y="890">  │   ├── signal-exit@3.0.2 </tspan>
<tspan x="10" y="906">  │   └── strip-eof@1.0.0 </tspan>
<tspan x="10" y="922">  ├── get-port@3.1.0 </tspan>
<tspan x="10" y="938">  ├── ip@1.1.5 </tspan>
<tspan x="10" y="954">  ├── is-async-supported@1.2.0 </tspan>
<tspan x="10" y="970">  ├── isstream@0.1.2 </tspan>
<tspan x="10" y="986">  ├── media-typer@0.3.0 </tspan>
<tspan x="10" y="1002">  ├── node-version@1.0.0 </tspan>
<tspan x="10" y="1018">  ├─┬ raw-body@2.2.0 </tspan>
<tspan x="10" y="1034">  │ ├── bytes@2.4.0 </tspan>
<tspan x="10" y="1050">  │ ├── iconv-lite@0.4.15 </tspan>
<tspan x="10" y="1066">  │ └── unpipe@1.0.0 </tspan>
<tspan x="10" y="1082">  └─┬ update-notifier@2.1.0 </tspan>
<tspan x="10" y="1098">    ├─┬ configstore@3.0.0 </tspan>
<tspan x="10" y="1114">    │ ├─┬ dot-prop@4.1.1 </tspan>
<tspan x="10" y="1130">    │ │ └── is-obj@1.0.1 </tspan>
<tspan x="10" y="1146">    │ ├── graceful-fs@4.1.11 </tspan>
<tspan x="10" y="1162">    │ ├─┬ mkdirp@0.5.1 </tspan>
<tspan x="10" y="1178">    │ │ └── minimist@0.0.8 </tspan>
<tspan x="10" y="1194">    │ ├─┬ unique-string@1.0.0 </tspan>
<tspan x="10" y="1210">    │ │ └── crypto-random-string@1.0.0 </tspan>
<tspan x="10" y="1226">    │ └─┬ write-file-atomic@1.3.1 </tspan>
<tspan x="10" y="1242">    │   ├── imurmurhash@0.1.4 </tspan>
<tspan x="10" y="1258">    │   └── slide@1.1.6 </tspan>
<tspan x="10" y="1274">    ├── is-npm@1.0.0 </tspan>
<tspan x="10" y="1290">    ├─┬ latest-version@3.1.0 </tspan>
<tspan x="10" y="1306">    │ └─┬ package-json@4.0.1 </tspan>
<tspan x="10" y="1322">    │   ├─┬ got@6.7.1 </tspan>
<tspan x="10" y="1338">    │   │ ├─┬ create-error-class@3.0.2 </tspan>
<tspan x="10" y="1354">    │   │ │ └── capture-stack-trace@1.0.0 </tspan>
<tspan x="10" y="1370">    │   │ ├── duplexer3@0.1.4 </tspan>
<tspan x="10" y="1386">    │   │ ├── is-redirect@1.0.0 </tspan>
<tspan x="10" y="1402">    │   │ ├── is-retry-allowed@1.1.0 </tspan>
<tspan x="10" y="1418">    │   │ ├── lowercase-keys@1.0.0 </tspan>
<tspan x="10" y="1434">    │   │ ├── safe-buffer@5.0.1 </tspan>
<tspan x="10" y="1450">    │   │ ├── timed-out@4.0.1 </tspan>
<tspan x="10" y="1466">    │   │ ├── unzip-response@2.0.1 </tspan>
<tspan x="10" y="1482">    │   │ └─┬ url-parse-lax@1.0.0 </tspan>
<tspan x="10" y="1498">    │   │   └── prepend-http@1.0.4 </tspan>
<tspan x="10" y="1514">    │   ├─┬ registry-auth-token@3.1.2 </tspan>
<tspan x="10" y="1530">    │   │ └─┬ rc@1.2.1 </tspan>
<tspan x="10" y="1546">    │   │   ├── deep-extend@0.4.1 </tspan>
<tspan x="10" y="1562">    │   │   ├── ini@1.3.4 </tspan>
<tspan x="10" y="1578">    │   │   └── strip-json-comments@2.0.1 </tspan>
<tspan x="10" y="1594">    │   └── registry-url@3.1.0 </tspan>
<tspan x="10" y="1610">    ├── lazy-req@2.0.0 </tspan>
<tspan x="10" y="1626">    ├─┬ semver-diff@2.1.0 </tspan>
<tspan x="10" y="1642">    │ └── semver@5.3.0 </tspan>
<tspan x="10" y="1658">    └── xdg-basedir@3.0.0</tspan>
</text>
</svg>
